<svg xmlns="http://www.w3.org/2000/svg" width="810" viewBox="0 0 810 405" height="405" version="1.0"><defs><clipPath id="a"><path d="M 697 94.339844 L 756 94.339844 L 756 140 L 697 140 Z M 697 94.339844"/></clipPath><clipPath id="b"><path d="M 672.746094 199.445312 L 767.3125 199.445312 L 767.3125 321.46875 L 672.746094 321.46875 Z M 672.746094 199.445312"/></clipPath></defs><g fill="#FFF"><g><g><path d="M 244.34375 -3.59375 C 244.9375 -3.59375 245.234375 -2.992188 245.234375 -1.796875 C 245.234375 -0.597656 244.9375 0 244.34375 0 C 237.957031 0 232.863281 -0.0976562 229.0625 -0.296875 L 208.40625 -0.59375 L 188.34375 -0.296875 C 185.15625 -0.0976562 180.664062 0 174.875 0 C 174.46875 0 174.265625 -0.597656 174.265625 -1.796875 C 174.265625 -2.992188 174.46875 -3.59375 174.875 -3.59375 C 181.65625 -3.59375 186.644531 -4.140625 189.84375 -5.234375 C 193.039062 -6.335938 195.1875 -8.285156 196.28125 -11.078125 C 197.375 -13.867188 197.722656 -18.257812 197.328125 -24.25 L 191.640625 -157.5 L 124.5625 -2.09375 C 124.164062 -1.289062 123.367188 -0.890625 122.171875 -0.890625 C 121.171875 -0.890625 120.269531 -1.289062 119.46875 -2.09375 L 45.515625 -156.90625 L 43.125 -33.53125 C 42.914062 -22.957031 44.757812 -15.320312 48.65625 -10.625 C 52.550781 -5.9375 59.085938 -3.59375 68.265625 -3.59375 C 68.671875 -3.59375 68.875 -2.992188 68.875 -1.796875 C 68.875 -0.597656 68.671875 0 68.265625 0 C 62.679688 0 58.390625 -0.0976562 55.390625 -0.296875 L 39.21875 -0.59375 L 23.0625 -0.296875 C 20.257812 -0.0976562 16.265625 0 11.078125 0 C 10.484375 0 10.1875 -0.597656 10.1875 -1.796875 C 10.1875 -2.992188 10.484375 -3.59375 11.078125 -3.59375 C 19.265625 -3.59375 25.351562 -5.988281 29.34375 -10.78125 C 33.332031 -15.570312 35.429688 -23.15625 35.640625 -33.53125 L 38.328125 -169.78125 C 32.335938 -178.96875 23.953125 -183.5625 13.171875 -183.5625 C 12.578125 -183.5625 12.28125 -184.160156 12.28125 -185.359375 C 12.28125 -186.554688 12.578125 -187.15625 13.171875 -187.15625 L 24.859375 -186.84375 C 27.046875 -186.644531 29.9375 -186.546875 33.53125 -186.546875 C 37.53125 -186.546875 40.875 -186.644531 43.5625 -186.84375 C 46.257812 -187.050781 48.40625 -187.15625 50 -187.15625 C 52.601562 -187.15625 54.703125 -186.253906 56.296875 -184.453125 C 57.890625 -182.660156 60.382812 -178.367188 63.78125 -171.578125 L 130.5625 -33.84375 L 194.03125 -179.65625 C 196.226562 -184.65625 199.222656 -187.15625 203.015625 -187.15625 C 204.015625 -187.15625 205.507812 -187.050781 207.5 -186.84375 C 209.5 -186.644531 212.097656 -186.546875 215.296875 -186.546875 L 230.265625 -186.84375 C 232.460938 -187.050781 235.859375 -187.15625 240.453125 -187.15625 C 240.847656 -187.15625 241.046875 -186.554688 241.046875 -185.359375 C 241.046875 -184.160156 240.847656 -183.5625 240.453125 -183.5625 C 230.460938 -183.5625 223.320312 -182.007812 219.03125 -178.90625 C 214.738281 -175.8125 212.695312 -170.273438 212.90625 -162.296875 L 219.1875 -24.25 C 219.582031 -18.0625 220.378906 -13.570312 221.578125 -10.78125 C 222.773438 -7.988281 225.019531 -6.09375 228.3125 -5.09375 C 231.613281 -4.09375 236.957031 -3.59375 244.34375 -3.59375 Z M 244.34375 -3.59375" transform="translate(0 274.555)"/></g></g></g><g fill="#FFF"><g><g><path d="M 124.5625 -16.171875 C 125.363281 -16.171875 125.863281 -15.71875 126.0625 -14.8125 C 126.257812 -13.914062 125.960938 -13.269531 125.171875 -12.875 L 94.328125 1.796875 C 93.523438 2.191406 92.625 2.390625 91.625 2.390625 C 89.03125 2.390625 86.6875 0.644531 84.59375 -2.84375 C 82.5 -6.332031 81.050781 -11.070312 80.25 -17.0625 L 65.28125 -7.1875 C 60.488281 -3.789062 56.144531 -1.394531 52.25 0 C 48.351562 1.394531 44.210938 2.09375 39.828125 2.09375 C 32.242188 2.09375 26.351562 0.148438 22.15625 -3.734375 C 17.96875 -7.628906 15.875 -12.570312 15.875 -18.5625 C 15.875 -24.945312 18.414062 -30.285156 23.5 -34.578125 C 28.59375 -38.867188 36.726562 -43.113281 47.90625 -47.3125 L 79.953125 -58.984375 L 79.953125 -78.75 C 79.953125 -90.726562 78.40625 -99.410156 75.3125 -104.796875 C 72.21875 -110.191406 67.675781 -112.890625 61.6875 -112.890625 C 55.09375 -112.890625 50.097656 -110.59375 46.703125 -106 C 43.316406 -101.40625 41.125 -96.21875 40.125 -90.4375 C 38.925781 -81.644531 34.832031 -77.25 27.84375 -77.25 C 24.25 -77.25 21.550781 -78.144531 19.75 -79.9375 C 17.957031 -81.738281 17.0625 -83.9375 17.0625 -86.53125 C 17.0625 -91.519531 20.207031 -96.507812 26.5 -101.5 C 32.789062 -106.5 40.375 -110.59375 49.25 -113.78125 C 58.132812 -116.976562 65.972656 -118.578125 72.765625 -118.578125 C 80.953125 -118.578125 87.289062 -115.929688 91.78125 -110.640625 C 96.269531 -105.347656 98.515625 -97.710938 98.515625 -87.734375 L 98.515625 -32.34375 C 98.515625 -25.550781 99.460938 -20.554688 101.359375 -17.359375 C 103.253906 -14.171875 106.195312 -12.578125 110.1875 -12.578125 C 113.78125 -12.578125 118.375 -13.773438 123.96875 -16.171875 Z M 79.953125 -21.5625 L 79.953125 -54.796875 L 54.796875 -44.609375 C 49.410156 -42.617188 45.316406 -40.175781 42.515625 -37.28125 C 39.722656 -34.382812 38.328125 -30.738281 38.328125 -26.34375 C 38.328125 -21.550781 39.875 -17.609375 42.96875 -14.515625 C 46.0625 -11.421875 50.003906 -9.875 54.796875 -9.875 C 58.785156 -9.875 63.273438 -11.375 68.265625 -14.375 Z M 79.953125 -21.5625" transform="translate(251.234 274.555)"/></g></g></g><g fill="#FFF"><g><g><path d="M 149.125 -3.59375 C 149.71875 -3.59375 150.015625 -2.992188 150.015625 -1.796875 C 150.015625 -0.597656 149.71875 0 149.125 0 C 144.132812 0 140.238281 -0.0976562 137.4375 -0.296875 L 121.265625 -0.59375 L 105.109375 -0.296875 C 102.304688 -0.0976562 98.507812 0 93.71875 0 C 93.125 0 92.828125 -0.597656 92.828125 -1.796875 C 92.828125 -2.992188 93.125 -3.59375 93.71875 -3.59375 C 98.914062 -3.59375 102.757812 -4.140625 105.25 -5.234375 C 107.75 -6.335938 109.445312 -8.335938 110.34375 -11.234375 C 111.238281 -14.128906 111.6875 -18.46875 111.6875 -24.25 L 111.6875 -71.859375 C 111.6875 -83.441406 109.539062 -91.976562 105.25 -97.46875 C 100.957031 -102.957031 94.117188 -105.703125 84.734375 -105.703125 C 78.953125 -105.703125 73.015625 -104.203125 66.921875 -101.203125 C 60.835938 -98.210938 55.300781 -94.023438 50.3125 -88.640625 L 50.3125 -24.25 C 50.3125 -18.46875 50.757812 -14.128906 51.65625 -11.234375 C 52.550781 -8.335938 54.296875 -6.335938 56.890625 -5.234375 C 59.484375 -4.140625 63.378906 -3.59375 68.578125 -3.59375 C 69.171875 -3.59375 69.46875 -2.992188 69.46875 -1.796875 C 69.46875 -0.597656 69.171875 0 68.578125 0 C 63.578125 0 59.679688 -0.0976562 56.890625 -0.296875 L 40.71875 -0.59375 L 24.546875 -0.296875 C 21.753906 -0.0976562 17.960938 0 13.171875 0 C 12.578125 0 12.28125 -0.597656 12.28125 -1.796875 C 12.28125 -2.992188 12.578125 -3.59375 13.171875 -3.59375 C 18.359375 -3.59375 22.203125 -4.140625 24.703125 -5.234375 C 27.203125 -6.335938 28.898438 -8.335938 29.796875 -11.234375 C 30.691406 -14.128906 31.140625 -18.46875 31.140625 -24.25 L 31.140625 -82.9375 C 31.140625 -89.53125 30.335938 -94.320312 28.734375 -97.3125 C 27.140625 -100.3125 24.546875 -101.8125 20.953125 -101.8125 C 17.960938 -101.8125 12.675781 -100.3125 5.09375 -97.3125 L 4.796875 -97.3125 C 3.992188 -97.3125 3.390625 -97.757812 2.984375 -98.65625 C 2.585938 -99.5625 2.789062 -100.210938 3.59375 -100.609375 L 39.53125 -117.984375 L 41.328125 -118.28125 C 43.316406 -118.28125 45.257812 -116.03125 47.15625 -111.53125 C 49.050781 -107.039062 50.101562 -101.101562 50.3125 -93.71875 C 64.882812 -110.882812 80.15625 -119.46875 96.125 -119.46875 C 107.101562 -119.46875 115.632812 -116.273438 121.71875 -109.890625 C 127.8125 -103.503906 130.859375 -94.421875 130.859375 -82.640625 L 130.859375 -24.25 C 130.859375 -18.46875 131.304688 -14.128906 132.203125 -11.234375 C 133.097656 -8.335938 134.84375 -6.335938 137.4375 -5.234375 C 140.03125 -4.140625 143.925781 -3.59375 149.125 -3.59375 Z M 149.125 -3.59375" transform="translate(377 274.555)"/></g></g></g><g fill="#FFF"><g><g><path d="M 75.453125 -8.078125 C 86.234375 -7.878906 95.015625 -7.332031 101.796875 -6.4375 C 108.585938 -5.539062 114.726562 -2.847656 120.21875 1.640625 C 125.707031 6.140625 128.453125 13.175781 128.453125 22.75 C 128.453125 33.726562 124.957031 43.910156 117.96875 53.296875 C 110.988281 62.679688 101.757812 70.164062 90.28125 75.75 C 78.800781 81.34375 66.675781 84.140625 53.90625 84.140625 C 40.320312 84.140625 29.488281 80.992188 21.40625 74.703125 C 13.320312 68.421875 9.28125 60.488281 9.28125 50.90625 C 9.28125 36.332031 19.460938 21.957031 39.828125 7.78125 C 32.640625 6.582031 27.046875 4.382812 23.046875 1.1875 C 19.054688 -2 17.0625 -6.6875 17.0625 -12.875 C 17.0625 -18.863281 18.804688 -24.300781 22.296875 -29.1875 C 25.796875 -34.082031 31.238281 -39.328125 38.625 -44.921875 C 31.632812 -48.304688 26.144531 -53.039062 22.15625 -59.125 C 18.164062 -65.21875 16.171875 -71.859375 16.171875 -79.046875 C 16.171875 -90.429688 20.8125 -99.710938 30.09375 -106.890625 C 39.375 -114.078125 51.003906 -117.671875 64.984375 -117.671875 C 77.554688 -117.671875 87.9375 -114.578125 96.125 -108.390625 C 101.707031 -111.585938 106.992188 -114.035156 111.984375 -115.734375 C 116.972656 -117.429688 122.363281 -118.28125 128.15625 -118.28125 C 128.757812 -118.28125 129.207031 -117.53125 129.5 -116.03125 C 129.800781 -114.53125 129.953125 -112.882812 129.953125 -111.09375 C 129.953125 -108.695312 129.648438 -106.203125 129.046875 -103.609375 C 128.453125 -101.015625 127.757812 -99.914062 126.96875 -100.3125 C 120.570312 -103.300781 113.78125 -104.796875 106.59375 -104.796875 C 103.800781 -104.796875 101.707031 -104.695312 100.3125 -104.5 C 106.894531 -97.3125 110.1875 -88.925781 110.1875 -79.34375 C 110.1875 -72.164062 108.085938 -65.582031 103.890625 -59.59375 C 99.703125 -53.601562 93.960938 -48.8125 86.671875 -45.21875 C 79.390625 -41.625 71.160156 -39.828125 61.984375 -39.828125 C 55.796875 -39.828125 49.507812 -40.820312 43.125 -42.8125 C 39.53125 -39.820312 36.929688 -36.925781 35.328125 -34.125 C 33.734375 -31.332031 32.9375 -28.242188 32.9375 -24.859375 C 32.9375 -20.265625 34.332031 -16.769531 37.125 -14.375 C 39.925781 -11.976562 44.316406 -10.328125 50.296875 -9.421875 C 56.285156 -8.523438 64.671875 -8.078125 75.453125 -8.078125 Z M 57.1875 -112.890625 C 50.601562 -112.890625 45.515625 -110.742188 41.921875 -106.453125 C 38.328125 -102.160156 36.53125 -95.519531 36.53125 -86.53125 C 36.53125 -77.75 38.078125 -70.164062 41.171875 -63.78125 C 44.265625 -57.394531 48.207031 -52.550781 53 -49.25 C 57.789062 -45.957031 62.878906 -44.3125 68.265625 -44.3125 C 74.660156 -44.3125 79.800781 -46.65625 83.6875 -51.34375 C 87.582031 -56.039062 89.53125 -63.179688 89.53125 -72.765625 C 89.53125 -84.941406 86.382812 -94.671875 80.09375 -101.953125 C 73.8125 -109.242188 66.175781 -112.890625 57.1875 -112.890625 Z M 67.375 74.859375 C 80.550781 74.859375 91.226562 71.3125 99.40625 64.21875 C 107.59375 57.132812 111.6875 47.609375 111.6875 35.640625 C 111.6875 27.648438 109.789062 21.757812 106 17.96875 C 102.207031 14.175781 97.164062 11.78125 90.875 10.78125 C 84.59375 9.78125 75.757812 9.179688 64.375 8.984375 C 56.394531 8.984375 50.609375 8.785156 47.015625 8.390625 C 41.023438 12.378906 36.378906 16.816406 33.078125 21.703125 C 29.785156 26.597656 28.140625 32.640625 28.140625 39.828125 C 28.140625 50.804688 31.632812 59.390625 38.625 65.578125 C 45.613281 71.765625 55.195312 74.859375 67.375 74.859375 Z M 67.375 74.859375" transform="translate(532.412 274.555)"/></g></g></g><g fill="#FFF"><g><g><path d="M 28.75 -24.34375 L 34 -24.34375 L 34 -23.640625 L 32.578125 -23.640625 C 32.210938 -23.640625 31.96875 -23.460938 31.84375 -23.109375 L 24.6875 0 L 23.375 0 L 17.078125 -19.25 L 10.8125 0 L 9.5 0 L 2.359375 -23.109375 C 2.222656 -23.460938 1.976562 -23.640625 1.625 -23.640625 L 0.1875 -23.640625 L 0.1875 -24.34375 L 7.53125 -24.34375 L 7.53125 -23.640625 L 5.609375 -23.640625 L 11.125 -4.984375 L 16.421875 -21.296875 L 15.84375 -23.109375 C 15.71875 -23.460938 15.472656 -23.640625 15.109375 -23.640625 L 13.671875 -23.640625 L 13.671875 -24.34375 L 21.015625 -24.34375 L 21.015625 -23.640625 L 19.09375 -23.640625 L 24.921875 -5.09375 L 30.6875 -23.640625 L 28.75 -23.640625 Z M 28.75 -24.34375" transform="translate(19.749 333.75)"/></g></g></g><g fill="#FFF"><g><g><path d="M 9.34375 -17.15625 C 11.125 -17.15625 12.53125 -16.5625 13.5625 -15.375 C 14.59375 -14.1875 15.109375 -12.445312 15.109375 -10.15625 C 15.109375 -9.695312 15.082031 -9.179688 15.03125 -8.609375 L 4.484375 -8.609375 L 4.484375 -8.34375 C 4.484375 -5.894531 4.925781 -3.96875 5.8125 -2.5625 C 6.707031 -1.164062 7.851562 -0.46875 9.25 -0.46875 C 10.65625 -0.46875 11.804688 -0.828125 12.703125 -1.546875 C 13.609375 -2.265625 14.226562 -3.296875 14.5625 -4.640625 L 15.296875 -4.484375 C 14.992188 -2.910156 14.285156 -1.691406 13.171875 -0.828125 C 12.066406 0.0351562 10.789062 0.46875 9.34375 0.46875 C 7.101562 0.46875 5.242188 -0.316406 3.765625 -1.890625 C 2.285156 -3.460938 1.546875 -5.609375 1.546875 -8.328125 C 1.546875 -11.046875 2.289062 -13.195312 3.78125 -14.78125 C 5.28125 -16.363281 7.132812 -17.15625 9.34375 -17.15625 Z M 12.4375 -11.46875 C 12.4375 -14.644531 11.253906 -16.234375 8.890625 -16.234375 C 7.703125 -16.234375 6.6875 -15.585938 5.84375 -14.296875 C 5.007812 -13.003906 4.566406 -11.367188 4.515625 -9.390625 L 12.28125 -9.390625 C 12.382812 -10.265625 12.4375 -10.957031 12.4375 -11.46875 Z M 12.4375 -11.46875" transform="translate(55.874 333.75)"/></g></g></g><g fill="#FFF"><g><g><path d="M 4.671875 -23.875 L 3.25 -17.15625 L 2.59375 -17.15625 L 1.15625 -23.875 C 1.15625 -24.5 1.320312 -24.976562 1.65625 -25.3125 C 1.988281 -25.644531 2.410156 -25.8125 2.921875 -25.8125 C 3.441406 -25.8125 3.863281 -25.644531 4.1875 -25.3125 C 4.507812 -24.976562 4.671875 -24.5 4.671875 -23.875 Z M 4.671875 -23.875" transform="translate(74.845 333.75)"/></g></g></g><g fill="#FFF"><g><g><path d="M 3.515625 -1.234375 L 3.515625 -23.796875 C 3.515625 -24.160156 3.332031 -24.34375 2.96875 -24.34375 L 1.15625 -24.34375 L 1.15625 -25.046875 L 3.046875 -25.046875 C 4.597656 -25.046875 5.679688 -25.117188 6.296875 -25.265625 L 6.296875 -1.234375 C 6.296875 -0.878906 6.476562 -0.703125 6.84375 -0.703125 L 8.65625 -0.703125 L 8.65625 0 L 1.15625 0 L 1.15625 -0.703125 L 2.96875 -0.703125 C 3.332031 -0.703125 3.515625 -0.878906 3.515625 -1.234375 Z M 3.515625 -1.234375" transform="translate(82.611 333.75)"/></g></g></g><g fill="#FFF"><g><g><path d="M 3.515625 -1.234375 L 3.515625 -23.796875 C 3.515625 -24.160156 3.332031 -24.34375 2.96875 -24.34375 L 1.15625 -24.34375 L 1.15625 -25.046875 L 3.046875 -25.046875 C 4.597656 -25.046875 5.679688 -25.117188 6.296875 -25.265625 L 6.296875 -1.234375 C 6.296875 -0.878906 6.476562 -0.703125 6.84375 -0.703125 L 8.65625 -0.703125 L 8.65625 0 L 1.15625 0 L 1.15625 -0.703125 L 2.96875 -0.703125 C 3.332031 -0.703125 3.515625 -0.878906 3.515625 -1.234375 Z M 3.515625 -1.234375" transform="translate(94.357 333.75)"/></g></g></g><g fill="#FFF"><g><g><path d="M 11.046875 -9 L 11.09375 -10.359375 L 11.09375 -11.703125 C 11.09375 -14.722656 10.113281 -16.234375 8.15625 -16.234375 C 7.300781 -16.234375 6.632812 -15.941406 6.15625 -15.359375 C 5.6875 -14.773438 5.453125 -14.097656 5.453125 -13.328125 C 5.453125 -12.554688 5.550781 -11.890625 5.75 -11.328125 C 5.3125 -10.929688 4.707031 -10.734375 3.9375 -10.734375 C 3.164062 -10.734375 2.78125 -11.363281 2.78125 -12.625 C 2.78125 -13.894531 3.273438 -14.96875 4.265625 -15.84375 C 5.253906 -16.71875 6.664062 -17.15625 8.5 -17.15625 C 12.082031 -17.15625 13.875 -15.039062 13.875 -10.8125 L 13.875 -2.890625 C 13.875 -1.503906 14.257812 -0.8125 15.03125 -0.8125 C 15.394531 -0.8125 15.710938 -0.976562 15.984375 -1.3125 C 16.253906 -1.644531 16.390625 -2.03125 16.390625 -2.46875 C 16.390625 -2.90625 16.347656 -3.316406 16.265625 -3.703125 L 17 -3.828125 C 17.101562 -3.441406 17.15625 -3.015625 17.15625 -2.546875 C 17.15625 -1.617188 16.878906 -0.882812 16.328125 -0.34375 C 15.773438 0.195312 15.046875 0.46875 14.140625 0.46875 C 13.242188 0.46875 12.507812 0.101562 11.9375 -0.625 C 11.375 -1.363281 11.09375 -2.46875 11.09375 -3.9375 L 11.09375 -4.640625 C 10.65625 -2.890625 9.957031 -1.597656 9 -0.765625 C 8.050781 0.0546875 6.953125 0.46875 5.703125 0.46875 C 4.453125 0.46875 3.445312 0.078125 2.6875 -0.703125 C 1.925781 -1.492188 1.546875 -2.539062 1.546875 -3.84375 C 1.546875 -5.144531 2.148438 -6.300781 3.359375 -7.3125 C 4.566406 -8.332031 6.304688 -8.84375 8.578125 -8.84375 C 9.066406 -8.84375 9.890625 -8.78125 11.046875 -8.65625 Z M 6.5625 -1 C 7.644531 -1 8.617188 -1.609375 9.484375 -2.828125 C 10.347656 -4.054688 10.859375 -5.78125 11.015625 -8 C 10.753906 -8.019531 10.394531 -8.03125 9.9375 -8.03125 C 7.875 -8.03125 6.394531 -7.597656 5.5 -6.734375 C 4.613281 -5.878906 4.171875 -4.882812 4.171875 -3.75 C 4.171875 -3 4.390625 -2.351562 4.828125 -1.8125 C 5.265625 -1.269531 5.84375 -1 6.5625 -1 Z M 6.5625 -1" transform="translate(117.694 333.75)"/></g></g></g><g fill="#FFF"><g><g><path d="M 3.515625 -1.234375 L 3.515625 -23.796875 C 3.515625 -24.160156 3.332031 -24.34375 2.96875 -24.34375 L 1.15625 -24.34375 L 1.15625 -25.046875 L 3.046875 -25.046875 C 4.597656 -25.046875 5.679688 -25.117188 6.296875 -25.265625 L 6.296875 -1.234375 C 6.296875 -0.878906 6.476562 -0.703125 6.84375 -0.703125 L 8.65625 -0.703125 L 8.65625 0 L 1.15625 0 L 1.15625 -0.703125 L 2.96875 -0.703125 C 3.332031 -0.703125 3.515625 -0.878906 3.515625 -1.234375 Z M 3.515625 -1.234375" transform="translate(137.36 333.75)"/></g></g></g><g fill="#FFF"><g><g><path d="M 18.125 -16.6875 L 23.03125 -16.6875 L 23.03125 -16 L 21.59375 -16 C 21.363281 -16 21.1875 -15.816406 21.0625 -15.453125 L 16.265625 0 L 15.21875 0 L 11.328125 -11.9375 L 7.421875 0 L 6.375 0 L 1.578125 -15.453125 C 1.503906 -15.816406 1.328125 -16 1.046875 -16 L -0.390625 -16 L -0.390625 -16.6875 L 6.140625 -16.6875 L 6.140625 -16 L 4.21875 -16 L 7.6875 -4.140625 L 11.515625 -16 L 12.671875 -16 L 16.5 -4.21875 L 20.09375 -16 L 18.125 -16 Z M 18.125 -16.6875" transform="translate(149.107 333.75)"/></g></g></g><g fill="#FFF"><g><g><path d="M 11.046875 -9 L 11.09375 -10.359375 L 11.09375 -11.703125 C 11.09375 -14.722656 10.113281 -16.234375 8.15625 -16.234375 C 7.300781 -16.234375 6.632812 -15.941406 6.15625 -15.359375 C 5.6875 -14.773438 5.453125 -14.097656 5.453125 -13.328125 C 5.453125 -12.554688 5.550781 -11.890625 5.75 -11.328125 C 5.3125 -10.929688 4.707031 -10.734375 3.9375 -10.734375 C 3.164062 -10.734375 2.78125 -11.363281 2.78125 -12.625 C 2.78125 -13.894531 3.273438 -14.96875 4.265625 -15.84375 C 5.253906 -16.71875 6.664062 -17.15625 8.5 -17.15625 C 12.082031 -17.15625 13.875 -15.039062 13.875 -10.8125 L 13.875 -2.890625 C 13.875 -1.503906 14.257812 -0.8125 15.03125 -0.8125 C 15.394531 -0.8125 15.710938 -0.976562 15.984375 -1.3125 C 16.253906 -1.644531 16.390625 -2.03125 16.390625 -2.46875 C 16.390625 -2.90625 16.347656 -3.316406 16.265625 -3.703125 L 17 -3.828125 C 17.101562 -3.441406 17.15625 -3.015625 17.15625 -2.546875 C 17.15625 -1.617188 16.878906 -0.882812 16.328125 -0.34375 C 15.773438 0.195312 15.046875 0.46875 14.140625 0.46875 C 13.242188 0.46875 12.507812 0.101562 11.9375 -0.625 C 11.375 -1.363281 11.09375 -2.46875 11.09375 -3.9375 L 11.09375 -4.640625 C 10.65625 -2.890625 9.957031 -1.597656 9 -0.765625 C 8.050781 0.0546875 6.953125 0.46875 5.703125 0.46875 C 4.453125 0.46875 3.445312 0.078125 2.6875 -0.703125 C 1.925781 -1.492188 1.546875 -2.539062 1.546875 -3.84375 C 1.546875 -5.144531 2.148438 -6.300781 3.359375 -7.3125 C 4.566406 -8.332031 6.304688 -8.84375 8.578125 -8.84375 C 9.066406 -8.84375 9.890625 -8.78125 11.046875 -8.65625 Z M 6.5625 -1 C 7.644531 -1 8.617188 -1.609375 9.484375 -2.828125 C 10.347656 -4.054688 10.859375 -5.78125 11.015625 -8 C 10.753906 -8.019531 10.394531 -8.03125 9.9375 -8.03125 C 7.875 -8.03125 6.394531 -7.597656 5.5 -6.734375 C 4.613281 -5.878906 4.171875 -4.882812 4.171875 -3.75 C 4.171875 -3 4.390625 -2.351562 4.828125 -1.8125 C 5.265625 -1.269531 5.84375 -1 6.5625 -1 Z M 6.5625 -1" transform="translate(173.68 333.75)"/></g></g></g><g fill="#FFF"><g><g><path d="M 11.203125 -16.6875 L 16.109375 -16.6875 L 16.109375 -16 L 14.6875 -16 C 14.445312 -16 14.265625 -15.816406 14.140625 -15.453125 L 7.453125 2.4375 C 7.378906 2.664062 7.253906 3.015625 7.078125 3.484375 L 6.640625 4.515625 C 6.566406 4.753906 6.453125 5.070312 6.296875 5.46875 C 6.140625 5.863281 6.007812 6.171875 5.90625 6.390625 C 5.800781 6.609375 5.675781 6.875 5.53125 7.1875 C 5.34375 7.570312 5.082031 7.9375 4.75 8.28125 C 4.414062 8.632812 4.066406 8.8125 3.703125 8.8125 C 3.347656 8.8125 2.96875 8.582031 2.5625 8.125 C 2.164062 7.675781 1.929688 7.195312 1.859375 6.6875 C 4.203125 5.675781 5.796875 4 6.640625 1.65625 L 7.296875 -0.109375 L 1.578125 -15.453125 C 1.453125 -15.816406 1.273438 -16 1.046875 -16 L -0.390625 -16 L -0.390625 -16.6875 L 6.1875 -16.6875 L 6.1875 -16 L 4.25 -16 L 8.6875 -3.78125 L 13.171875 -16 L 11.203125 -16 Z M 11.203125 -16.6875" transform="translate(193.346 333.75)"/></g></g></g><g fill="#FFF"><g><g><path d="M 6.5625 -10.46875 L 10.59375 -8.96875 C 11.539062 -8.601562 12.265625 -8.050781 12.765625 -7.3125 C 13.273438 -6.582031 13.53125 -5.769531 13.53125 -4.875 C 13.53125 -3.476562 12.972656 -2.238281 11.859375 -1.15625 C 10.753906 -0.0703125 9.265625 0.46875 7.390625 0.46875 C 5.523438 0.46875 3.769531 0.117188 2.125 -0.578125 C 2.28125 -1.191406 2.359375 -2.273438 2.359375 -3.828125 L 2.359375 -5.375 L 3.046875 -5.375 L 3.328125 -3.359375 C 3.554688 -1.429688 4.90625 -0.46875 7.375 -0.46875 C 8.488281 -0.46875 9.410156 -0.804688 10.140625 -1.484375 C 10.878906 -2.171875 11.25 -2.953125 11.25 -3.828125 C 11.25 -5.035156 10.515625 -5.910156 9.046875 -6.453125 L 5.015625 -7.953125 C 4.117188 -8.296875 3.4375 -8.828125 2.96875 -9.546875 C 2.507812 -10.265625 2.28125 -11.078125 2.28125 -11.984375 C 2.28125 -13.347656 2.769531 -14.550781 3.75 -15.59375 C 4.726562 -16.632812 5.957031 -17.15625 7.4375 -17.15625 C 8.914062 -17.15625 10.582031 -16.804688 12.4375 -16.109375 C 12.28125 -15.492188 12.203125 -14.414062 12.203125 -12.875 L 12.203125 -11.328125 L 11.515625 -11.328125 L 11.25 -13.328125 C 11.039062 -15.179688 9.867188 -16.109375 7.734375 -16.109375 C 6.773438 -16.109375 5.984375 -15.8125 5.359375 -15.21875 C 4.742188 -14.625 4.4375 -13.929688 4.4375 -13.140625 C 4.4375 -11.898438 5.144531 -11.007812 6.5625 -10.46875 Z M 6.5625 -10.46875" transform="translate(211.004 333.75)"/></g></g></g><g fill="#FFF"><g><g><path d="M 15.46875 -1.890625 C 14.070312 -0.316406 12.238281 0.46875 9.96875 0.46875 C 7.695312 0.46875 5.804688 -0.382812 4.296875 -2.09375 L 3.984375 0.3125 L 3.328125 0.3125 L 3.328125 -23.796875 C 3.328125 -24.160156 3.144531 -24.34375 2.78125 -24.34375 L 0.96875 -24.34375 L 0.96875 -25.046875 L 2.859375 -25.046875 C 4.398438 -25.046875 5.484375 -25.117188 6.109375 -25.265625 L 6.109375 -11.515625 C 6.546875 -13.367188 7.242188 -14.769531 8.203125 -15.71875 C 9.171875 -16.675781 10.25 -17.15625 11.4375 -17.15625 C 13.0625 -17.15625 14.488281 -16.34375 15.71875 -14.71875 C 16.957031 -13.09375 17.578125 -10.941406 17.578125 -8.265625 C 17.578125 -5.585938 16.875 -3.460938 15.46875 -1.890625 Z M 10.859375 -15.6875 C 9.566406 -15.6875 8.453125 -14.882812 7.515625 -13.28125 C 6.578125 -11.6875 6.109375 -9.382812 6.109375 -6.375 L 6.109375 -1.578125 C 7.191406 -0.859375 8.421875 -0.5 9.796875 -0.5 C 11.171875 -0.5 12.320312 -1.179688 13.25 -2.546875 C 14.175781 -3.910156 14.640625 -5.789062 14.640625 -8.1875 C 14.640625 -10.582031 14.265625 -12.429688 13.515625 -13.734375 C 12.773438 -15.035156 11.890625 -15.6875 10.859375 -15.6875 Z M 10.859375 -15.6875" transform="translate(239.789 333.75)"/></g></g></g><g fill="#FFF"><g><g><path d="M 9.34375 -17.15625 C 11.125 -17.15625 12.53125 -16.5625 13.5625 -15.375 C 14.59375 -14.1875 15.109375 -12.445312 15.109375 -10.15625 C 15.109375 -9.695312 15.082031 -9.179688 15.03125 -8.609375 L 4.484375 -8.609375 L 4.484375 -8.34375 C 4.484375 -5.894531 4.925781 -3.96875 5.8125 -2.5625 C 6.707031 -1.164062 7.851562 -0.46875 9.25 -0.46875 C 10.65625 -0.46875 11.804688 -0.828125 12.703125 -1.546875 C 13.609375 -2.265625 14.226562 -3.296875 14.5625 -4.640625 L 15.296875 -4.484375 C 14.992188 -2.910156 14.285156 -1.691406 13.171875 -0.828125 C 12.066406 0.0351562 10.789062 0.46875 9.34375 0.46875 C 7.101562 0.46875 5.242188 -0.316406 3.765625 -1.890625 C 2.285156 -3.460938 1.546875 -5.609375 1.546875 -8.328125 C 1.546875 -11.046875 2.289062 -13.195312 3.78125 -14.78125 C 5.28125 -16.363281 7.132812 -17.15625 9.34375 -17.15625 Z M 12.4375 -11.46875 C 12.4375 -14.644531 11.253906 -16.234375 8.890625 -16.234375 C 7.703125 -16.234375 6.6875 -15.585938 5.84375 -14.296875 C 5.007812 -13.003906 4.566406 -11.367188 4.515625 -9.390625 L 12.28125 -9.390625 C 12.382812 -10.265625 12.4375 -10.957031 12.4375 -11.46875 Z M 12.4375 -11.46875" transform="translate(260.846 333.75)"/></g></g></g><g fill="#FFF"><g><g><path d="M 11.203125 -16.6875 L 16.109375 -16.6875 L 16.109375 -16 L 14.6875 -16 C 14.445312 -16 14.265625 -15.816406 14.140625 -15.453125 L 7.453125 2.4375 C 7.378906 2.664062 7.253906 3.015625 7.078125 3.484375 L 6.640625 4.515625 C 6.566406 4.753906 6.453125 5.070312 6.296875 5.46875 C 6.140625 5.863281 6.007812 6.171875 5.90625 6.390625 C 5.800781 6.609375 5.675781 6.875 5.53125 7.1875 C 5.34375 7.570312 5.082031 7.9375 4.75 8.28125 C 4.414062 8.632812 4.066406 8.8125 3.703125 8.8125 C 3.347656 8.8125 2.96875 8.582031 2.5625 8.125 C 2.164062 7.675781 1.929688 7.195312 1.859375 6.6875 C 4.203125 5.675781 5.796875 4 6.640625 1.65625 L 7.296875 -0.109375 L 1.578125 -15.453125 C 1.453125 -15.816406 1.273438 -16 1.046875 -16 L -0.390625 -16 L -0.390625 -16.6875 L 6.1875 -16.6875 L 6.1875 -16 L 4.25 -16 L 8.6875 -3.78125 L 13.171875 -16 L 11.203125 -16 Z M 11.203125 -16.6875" transform="translate(291.408 333.75)"/></g></g></g><g fill="#FFF"><g><g><path d="M 3.703125 -1.890625 C 2.265625 -3.460938 1.546875 -5.613281 1.546875 -8.34375 C 1.546875 -11.070312 2.265625 -13.222656 3.703125 -14.796875 C 5.148438 -16.367188 7.03125 -17.15625 9.34375 -17.15625 C 11.664062 -17.15625 13.550781 -16.367188 15 -14.796875 C 16.457031 -13.222656 17.1875 -11.070312 17.1875 -8.34375 C 17.1875 -5.613281 16.457031 -3.460938 15 -1.890625 C 13.550781 -0.316406 11.664062 0.46875 9.34375 0.46875 C 7.03125 0.46875 5.148438 -0.316406 3.703125 -1.890625 Z M 5.875 -14.15625 C 4.945312 -12.726562 4.484375 -10.789062 4.484375 -8.34375 C 4.484375 -5.894531 4.945312 -3.957031 5.875 -2.53125 C 6.800781 -1.101562 7.957031 -0.390625 9.34375 -0.390625 C 10.738281 -0.390625 11.90625 -1.101562 12.84375 -2.53125 C 13.789062 -3.957031 14.265625 -5.894531 14.265625 -8.34375 C 14.265625 -10.789062 13.789062 -12.726562 12.84375 -14.15625 C 11.90625 -15.59375 10.738281 -16.3125 9.34375 -16.3125 C 7.957031 -16.3125 6.800781 -15.59375 5.875 -14.15625 Z M 5.875 -14.15625" transform="translate(309.066 333.75)"/></g></g></g><g fill="#FFF"><g><g><path d="M 16.5 -16.921875 L 16.5 -1.234375 C 16.5 -0.878906 16.679688 -0.703125 17.046875 -0.703125 L 18.859375 -0.703125 L 18.859375 0 L 16.96875 0 C 15.414062 0 14.332031 0.078125 13.71875 0.234375 L 13.71875 -4.984375 C 12.84375 -1.347656 10.910156 0.46875 7.921875 0.46875 C 6.578125 0.46875 5.441406 -0.015625 4.515625 -0.984375 C 3.585938 -1.953125 3.125 -3.425781 3.125 -5.40625 L 3.125 -15.453125 C 3.125 -15.816406 2.945312 -16 2.59375 -16 L 0.765625 -16 L 0.765625 -16.6875 L 2.671875 -16.6875 C 4.210938 -16.6875 5.289062 -16.765625 5.90625 -16.921875 L 5.90625 -4.90625 C 5.90625 -3.59375 6.195312 -2.617188 6.78125 -1.984375 C 7.363281 -1.359375 8.128906 -1.046875 9.078125 -1.046875 C 10.441406 -1.046875 11.554688 -1.875 12.421875 -3.53125 C 13.285156 -5.195312 13.71875 -7.585938 13.71875 -10.703125 L 13.71875 -15.453125 C 13.71875 -15.816406 13.535156 -16 13.171875 -16 L 11.359375 -16 L 11.359375 -16.6875 L 13.25 -16.6875 C 14.800781 -16.6875 15.882812 -16.765625 16.5 -16.921875 Z M 16.5 -16.921875" transform="translate(329.736 333.75)"/></g></g></g><g fill="#FFF"><g><g><path d="M 11.390625 -17.15625 C 12.398438 -17.15625 13.21875 -16.726562 13.84375 -15.875 C 14.476562 -15.03125 14.796875 -13.960938 14.796875 -12.671875 C 14.796875 -11.378906 14.269531 -10.734375 13.21875 -10.734375 C 12.59375 -10.734375 12.085938 -10.929688 11.703125 -11.328125 C 12.035156 -12.066406 12.203125 -12.820312 12.203125 -13.59375 C 12.203125 -14.96875 11.640625 -15.65625 10.515625 -15.65625 C 9.554688 -15.65625 8.707031 -14.859375 7.96875 -13.265625 C 7.238281 -11.679688 6.875 -9.382812 6.875 -6.375 L 6.875 -1.234375 C 6.875 -0.878906 7.054688 -0.703125 7.421875 -0.703125 L 10.015625 -0.703125 L 10.015625 0 L 1.734375 0 L 1.734375 -0.703125 L 3.5625 -0.703125 C 3.914062 -0.703125 4.09375 -0.878906 4.09375 -1.234375 L 4.09375 -15.453125 C 4.09375 -15.816406 3.914062 -16 3.5625 -16 L 1.734375 -16 L 1.734375 -16.6875 L 3.625 -16.6875 C 5.175781 -16.6875 6.257812 -16.765625 6.875 -16.921875 L 6.875 -11.984375 C 7.289062 -13.753906 7.894531 -15.054688 8.6875 -15.890625 C 9.488281 -16.734375 10.390625 -17.15625 11.390625 -17.15625 Z M 11.390625 -17.15625" transform="translate(351.682 333.75)"/></g></g></g><g fill="#FFF"><g><g><path d="M 6.921875 -8.6875 L 6.921875 -9.15625 L 13.09375 -15.765625 L 13.71875 -15.21875 L 10.078125 -8.921875 L 13.71875 -2.625 L 13.09375 -2.09375 Z M 1.15625 -8.6875 L 1.15625 -9.15625 L 7.34375 -15.765625 L 7.953125 -15.21875 L 4.328125 -8.921875 L 7.953125 -2.625 L 7.34375 -2.09375 Z M 1.15625 -8.6875" transform="translate(380.197 333.75)"/></g></g></g><g fill="#FFF"><g><g><path d="M 1.359375 0 L 1.359375 -0.703125 L 3.171875 -0.703125 C 3.523438 -0.703125 3.703125 -0.851562 3.703125 -1.15625 L 3.703125 -23.1875 C 3.703125 -23.488281 3.523438 -23.640625 3.171875 -23.640625 L 1.359375 -23.640625 L 1.359375 -24.34375 L 10.390625 -24.34375 C 12.328125 -24.34375 13.984375 -23.8125 15.359375 -22.75 C 16.734375 -21.695312 17.421875 -20.332031 17.421875 -18.65625 C 17.421875 -17.375 17.078125 -16.25 16.390625 -15.28125 C 15.710938 -14.3125 14.804688 -13.582031 13.671875 -13.09375 C 15.296875 -12.738281 16.617188 -12.003906 17.640625 -10.890625 C 18.660156 -9.785156 19.171875 -8.3125 19.171875 -6.46875 C 19.171875 -4.625 18.410156 -3.082031 16.890625 -1.84375 C 15.367188 -0.613281 13.523438 0 11.359375 0 Z M 11.171875 -12.40625 L 6.875 -12.40625 L 6.875 -1.078125 L 11.171875 -1.078125 C 12.710938 -1.078125 13.914062 -1.644531 14.78125 -2.78125 C 15.644531 -3.914062 16.078125 -5.242188 16.078125 -6.765625 C 16.078125 -8.285156 15.644531 -9.601562 14.78125 -10.71875 C 13.914062 -11.84375 12.710938 -12.40625 11.171875 -12.40625 Z M 9.578125 -23.265625 L 6.875 -23.265625 L 6.875 -13.375 L 9.8125 -13.375 C 11.332031 -13.375 12.460938 -13.890625 13.203125 -14.921875 C 13.953125 -15.953125 14.328125 -17.15625 14.328125 -18.53125 C 14.328125 -19.90625 13.941406 -21.035156 13.171875 -21.921875 C 12.398438 -22.816406 11.203125 -23.265625 9.578125 -23.265625 Z M 9.578125 -23.265625" transform="translate(397.39 333.75)"/></g></g></g><g fill="#FFF"><g><g><path d="M 11.046875 -9 L 11.09375 -10.359375 L 11.09375 -11.703125 C 11.09375 -14.722656 10.113281 -16.234375 8.15625 -16.234375 C 7.300781 -16.234375 6.632812 -15.941406 6.15625 -15.359375 C 5.6875 -14.773438 5.453125 -14.097656 5.453125 -13.328125 C 5.453125 -12.554688 5.550781 -11.890625 5.75 -11.328125 C 5.3125 -10.929688 4.707031 -10.734375 3.9375 -10.734375 C 3.164062 -10.734375 2.78125 -11.363281 2.78125 -12.625 C 2.78125 -13.894531 3.273438 -14.96875 4.265625 -15.84375 C 5.253906 -16.71875 6.664062 -17.15625 8.5 -17.15625 C 12.082031 -17.15625 13.875 -15.039062 13.875 -10.8125 L 13.875 -2.890625 C 13.875 -1.503906 14.257812 -0.8125 15.03125 -0.8125 C 15.394531 -0.8125 15.710938 -0.976562 15.984375 -1.3125 C 16.253906 -1.644531 16.390625 -2.03125 16.390625 -2.46875 C 16.390625 -2.90625 16.347656 -3.316406 16.265625 -3.703125 L 17 -3.828125 C 17.101562 -3.441406 17.15625 -3.015625 17.15625 -2.546875 C 17.15625 -1.617188 16.878906 -0.882812 16.328125 -0.34375 C 15.773438 0.195312 15.046875 0.46875 14.140625 0.46875 C 13.242188 0.46875 12.507812 0.101562 11.9375 -0.625 C 11.375 -1.363281 11.09375 -2.46875 11.09375 -3.9375 L 11.09375 -4.640625 C 10.65625 -2.890625 9.957031 -1.597656 9 -0.765625 C 8.050781 0.0546875 6.953125 0.46875 5.703125 0.46875 C 4.453125 0.46875 3.445312 0.078125 2.6875 -0.703125 C 1.925781 -1.492188 1.546875 -2.539062 1.546875 -3.84375 C 1.546875 -5.144531 2.148438 -6.300781 3.359375 -7.3125 C 4.566406 -8.332031 6.304688 -8.84375 8.578125 -8.84375 C 9.066406 -8.84375 9.890625 -8.78125 11.046875 -8.65625 Z M 6.5625 -1 C 7.644531 -1 8.617188 -1.609375 9.484375 -2.828125 C 10.347656 -4.054688 10.859375 -5.78125 11.015625 -8 C 10.753906 -8.019531 10.394531 -8.03125 9.9375 -8.03125 C 7.875 -8.03125 6.394531 -7.597656 5.5 -6.734375 C 4.613281 -5.878906 4.171875 -4.882812 4.171875 -3.75 C 4.171875 -3 4.390625 -2.351562 4.828125 -1.8125 C 5.265625 -1.269531 5.84375 -1 6.5625 -1 Z M 6.5625 -1" transform="translate(419.066 333.75)"/></g></g></g><g fill="#FFF"><g><g><path d="M 17.46875 -11.28125 L 17.46875 -1.15625 C 17.46875 -0.851562 17.644531 -0.703125 18 -0.703125 L 19.828125 -0.703125 L 19.828125 0 L 12.875 0 L 12.875 -0.703125 L 14.140625 -0.703125 C 14.503906 -0.703125 14.6875 -0.851562 14.6875 -1.15625 L 14.6875 -11.78125 C 14.6875 -13.09375 14.394531 -14.066406 13.8125 -14.703125 C 13.226562 -15.335938 12.460938 -15.65625 11.515625 -15.65625 C 10.171875 -15.65625 9.0625 -14.859375 8.1875 -13.265625 C 7.3125 -11.679688 6.875 -9.410156 6.875 -6.453125 L 6.875 -1.234375 C 6.875 -0.878906 7.054688 -0.703125 7.421875 -0.703125 L 8.6875 -0.703125 L 8.6875 0 L 1.734375 0 L 1.734375 -0.703125 L 3.5625 -0.703125 C 3.914062 -0.703125 4.09375 -0.851562 4.09375 -1.15625 L 4.09375 -15.453125 C 4.09375 -15.816406 3.914062 -16 3.5625 -16 L 1.734375 -16 L 1.734375 -16.6875 L 3.625 -16.6875 C 5.175781 -16.6875 6.257812 -16.765625 6.875 -16.921875 L 6.875 -11.671875 C 7.75 -15.328125 9.679688 -17.15625 12.671875 -17.15625 C 14.015625 -17.15625 15.148438 -16.671875 16.078125 -15.703125 C 17.003906 -14.742188 17.46875 -13.269531 17.46875 -11.28125 Z M 17.46875 -11.28125" transform="translate(438.733 333.75)"/></g></g></g><g fill="#FFF"><g><g><path d="M 9.421875 -16.234375 C 7.953125 -16.234375 6.757812 -15.53125 5.84375 -14.125 C 4.9375 -12.71875 4.484375 -10.789062 4.484375 -8.34375 C 4.484375 -5.894531 4.925781 -3.96875 5.8125 -2.5625 C 6.707031 -1.164062 7.851562 -0.46875 9.25 -0.46875 C 10.65625 -0.46875 11.804688 -0.828125 12.703125 -1.546875 C 13.609375 -2.265625 14.226562 -3.296875 14.5625 -4.640625 L 15.296875 -4.484375 C 14.992188 -2.910156 14.285156 -1.691406 13.171875 -0.828125 C 12.066406 0.0351562 10.789062 0.46875 9.34375 0.46875 C 7.101562 0.46875 5.242188 -0.316406 3.765625 -1.890625 C 2.285156 -3.460938 1.546875 -5.613281 1.546875 -8.34375 C 1.546875 -11.070312 2.289062 -13.222656 3.78125 -14.796875 C 5.28125 -16.367188 7.160156 -17.15625 9.421875 -17.15625 C 11.179688 -17.15625 12.5 -16.757812 13.375 -15.96875 C 14.25 -15.1875 14.6875 -14.140625 14.6875 -12.828125 C 14.6875 -11.128906 14.207031 -10.28125 13.25 -10.28125 C 12.476562 -10.28125 11.863281 -10.484375 11.40625 -10.890625 C 11.757812 -11.671875 11.9375 -12.476562 11.9375 -13.3125 C 11.9375 -14.144531 11.722656 -14.835938 11.296875 -15.390625 C 10.878906 -15.953125 10.253906 -16.234375 9.421875 -16.234375 Z M 9.421875 -16.234375" transform="translate(461.838 333.75)"/></g></g></g><g fill="#FFF"><g><g><path d="M 3.703125 -1.890625 C 2.265625 -3.460938 1.546875 -5.613281 1.546875 -8.34375 C 1.546875 -11.070312 2.265625 -13.222656 3.703125 -14.796875 C 5.148438 -16.367188 7.03125 -17.15625 9.34375 -17.15625 C 11.664062 -17.15625 13.550781 -16.367188 15 -14.796875 C 16.457031 -13.222656 17.1875 -11.070312 17.1875 -8.34375 C 17.1875 -5.613281 16.457031 -3.460938 15 -1.890625 C 13.550781 -0.316406 11.664062 0.46875 9.34375 0.46875 C 7.03125 0.46875 5.148438 -0.316406 3.703125 -1.890625 Z M 5.875 -14.15625 C 4.945312 -12.726562 4.484375 -10.789062 4.484375 -8.34375 C 4.484375 -5.894531 4.945312 -3.957031 5.875 -2.53125 C 6.800781 -1.101562 7.957031 -0.390625 9.34375 -0.390625 C 10.738281 -0.390625 11.90625 -1.101562 12.84375 -2.53125 C 13.789062 -3.957031 14.265625 -5.894531 14.265625 -8.34375 C 14.265625 -10.789062 13.789062 -12.726562 12.84375 -14.15625 C 11.90625 -15.59375 10.738281 -16.3125 9.34375 -16.3125 C 7.957031 -16.3125 6.800781 -15.59375 5.875 -14.15625 Z M 5.875 -14.15625" transform="translate(480.036 333.75)"/></g></g></g><g fill="#FFF"><g><g><path d="M 8.34375 -9.15625 L 8.34375 -8.6875 L 2.15625 -2.09375 L 1.546875 -2.625 L 5.171875 -8.921875 L 1.546875 -15.21875 L 2.15625 -15.765625 Z M 14.109375 -9.15625 L 14.109375 -8.6875 L 7.921875 -2.09375 L 7.296875 -2.625 L 10.9375 -8.921875 L 7.296875 -15.21875 L 7.921875 -15.765625 Z M 14.109375 -9.15625" transform="translate(500.707 333.75)"/></g></g></g><path fill="#FFF" d="M 763.230469 148.234375 L 768.832031 117.539062 L 759.289062 116.089844 L 757.835938 148.234375 L 763.230469 148.234375"/><g clip-path="url(#a)"><path fill="#FFF" d="M 702.574219 95.230469 C 706.984375 95.671875 711.617188 95.753906 716.207031 96.109375 C 722.320312 96.585938 728.558594 97.980469 734.050781 100.890625 C 739.949219 104.019531 744.496094 108.902344 748.046875 114.496094 C 749.738281 117.164062 751.386719 120.003906 752.484375 122.976562 C 753.109375 124.664062 753.605469 126.398438 754.050781 128.144531 C 754.441406 129.675781 755.265625 133.335938 755.265625 133.335938 C 751.832031 127.128906 745.558594 121.828125 739.640625 117.917969 C 727.8125 110.097656 712.308594 108.386719 712.308594 108.386719 C 729.988281 112.914062 745.796875 124.375 755.585938 139.773438 C 755.585938 139.773438 749.085938 140.058594 743.617188 139.40625 C 728.066406 137.554688 716.914062 132.566406 708.589844 122.246094 C 703.789062 116.292969 701.8125 109.210938 699.574219 102.066406 C 698.777344 99.527344 697.980469 96.988281 697.183594 94.453125 C 697.441406 95.257812 701.839844 95.15625 702.574219 95.230469"/></g><path fill="#FFF" d="M 783.765625 195.335938 C 783.46875 193.914062 783.136719 192.507812 782.773438 191.117188 C 780.691406 183.167969 776.96875 175.277344 770.933594 169.546875 C 764.882812 163.800781 755.929688 161.210938 747.738281 160.867188 C 732.855469 160.242188 718.132812 168 710.671875 180.914062 C 703.707031 192.964844 702.199219 207.46875 701.441406 221.105469 C 701.28125 224.007812 701.164062 226.914062 701.050781 229.820312 C 696.679688 215.878906 695.140625 201.097656 698.378906 186.753906 C 701.332031 173.683594 707.902344 160.746094 719.085938 152.890625 C 740.070312 138.152344 773.929688 144.175781 789.648438 164.148438 C 809.984375 189.992188 799.824219 231.265625 786.035156 257.5625 C 780.710938 267.714844 774.183594 277.359375 766.53125 285.941406 C 771.269531 280.625 773.890625 271.753906 776.296875 265.257812 C 781.632812 250.851562 785.117188 235.609375 785.714844 220.230469 C 786.035156 212.027344 785.453125 203.464844 783.765625 195.335938"/><g clip-path="url(#b)"><path fill="#FFF" d="M 672.945312 287.980469 C 674.160156 275.136719 680.703125 262.386719 687.984375 252.246094 C 688.242188 251.890625 688.496094 251.535156 688.753906 251.179688 C 696.109375 241.039062 708.269531 226.867188 711.960938 199.636719 C 711.960938 199.636719 713.347656 229.636719 699.703125 250.160156 C 692.878906 260.421875 687.449219 271.660156 686.898438 284.328125 C 686.726562 288.289062 687.375 292.382812 689.417969 295.78125 C 693.445312 302.464844 702.417969 303.332031 709.347656 302.6875 C 742.898438 299.558594 767.007812 276.816406 767.007812 276.816406 C 767.003906 276.816406 752.128906 303.714844 719.617188 317.351562 C 710.535156 321.15625 699.269531 323.203125 689.71875 319.574219 C 679.703125 315.773438 673.539062 305.339844 672.839844 294.953125 C 672.679688 292.636719 672.726562 290.308594 672.945312 287.980469"/></g></svg>